<svg xmlns="http://www.w3.org/2000/svg" version="1.1" baseProfile="full" width="100%" height="100%" viewBox="0 0 1400 800">

  <rect x="1300" y="400" rx="40" ry="40" width="150" height="150" stroke="rgb(129, 201, 149)" fill="rgb(129, 201, 149)">
    <animateTransform attributeType="XML" attributeName="transform" begin="0s" dur="35s" type="rotate" from="0 1450 550" to="360 1450 550" repeatCount="indefinite"/>
  </rect>

  <path d="M 100 350 A 150 150 0 1 1 400 350 Q400 370 380 370 L 250 370 L 120 370 Q100 370 100 350" fill="#409eff">
    <animateMotion path="M 800 -200 L 800 -300 L 800 -200" dur="20s" begin="0s" repeatCount="indefinite"/>
    <animateTransform attributeType="XML" attributeName="transform" begin="0s" dur="30s" type="rotate" values="0 210 530 ; -30 210 530 ; 0 210 530" keyTimes="0 ; 0.5 ; 1" repeatCount="indefinite"/>
  </path>


  <circle cx="100" cy="100" r="60" stroke="#41b883" fill="#41b883">
    <animateMotion path="M 0 0 L 40 20 Z" dur="5s" repeatCount="indefinite"/>
  </circle>

    <circle cx="200" cy="200" r="60" stroke="#ff4932" fill="#ff4932">
    <animateMotion path="M 1200 0 L 1100 40 Z" dur="14s" repeatCount="indefinite"/>
  </circle>

  <!-- 三角形 -->
  <path d="M 165 580 L 270 580 Q275 578 270 570 L 223 483 Q220 480 217 483 L 165 570 Q160 578 165 580"  fill="#409eff">
    <animateTransform attributeType="XML" attributeName="transform" begin="0s" dur="35s" type="rotate" from="0 210 530" to="360 210 530" repeatCount="indefinite"/>
  </path>

  <path d="M 100 350 A 40 40 0 1 1 180 350 L 180 430 A 40 40 0 1 1 100 430 Z" fill="#41b883">
    <animateMotion path="M 140 390 L 180 360 L 140 390" dur="20s" begin="0s" repeatCount="indefinite"/>
    <animateTransform attributeType="XML" attributeName="transform" begin="0s" dur="30s" type="rotate" values="0 140 390; -60 140 390; 0 140 390" keyTimes="0 ; 0.5 ; 1" repeatCount="indefinite"/>
  </path>

  <rect x="400" y="600" rx="40" ry="40" width="100" height="100" stroke="rgb(129, 201, 149)" fill="#41b883">
    <animateTransform attributeType="XML" attributeName="transform" begin="0s" dur="35s" type="rotate" from="-30 550 750" to="330 550 750" repeatCount="indefinite"/>
  </rect>

<!-- 椭圆 -->
  <ellipse cx="1200" cy="1200" rx="50" ry="35"
           style="stroke:#409eff; fill:#409eff">
           <animateTransform attributeType="XML" attributeName="transform" begin="0s" dur="150s" type="rotate" from="330 450 950" to="-30 450 950"  repeatCount="indefinite"/>
           </ellipse>
</svg>